{"title":"Pulse - [Pink Floyd - Concert] (1994) - DvdRip x264  - [=Faith=]","uid":12004226,"size":7441511649,"categoryP":"video","categoryS":"music_videos","magnet":"?xt=urn:btih:f31beee2417a2464ede97c5ac39d974f29c79426&amp;dn=Pulse+-+%5BPink+Floyd+-+Concert%5D+%281994%29+-+DvdRip+x264++-+%5B%3DFaith%3D%5D&amp;tr=udp%3A%2F%2Ftracker.openbittorrent.com%3A80&amp;tr=udp%3A%2F%2Fopen.demonii.com%3A1337&amp;tr=udp%3A%2F%2Ftracker.coppersurfer.tk%3A6969&amp;tr=udp%3A%2F%2Fexodus.desync.com%3A6969","seeders":7,"leechers":2,"uploader":"Faithwyn","files":12,"time":1433843176,"description":"Title: Pulse\nGenre: Progressive Rock\nConcert Footage : Oct. 20 1994\nReleased on Dvd: July 10 2006\nBand: Pink Floyd - David Gilmour, Nick Mason, Richard Wright\nLength: 145 min\nScreen: Full Screen\nAudio : Stereo or 5.1 Surround\nIMDB Rating: 9.3\nSource: DVD - EMI (Pal)\n\n\nThis landmark DVD features the first ever film of Pink Floyd playing the band's seminal album, The Dark Side of the Moon, live in concert. The set documents the 1994 Division Bell tour and was filmed at London's Earls Court during a record-breaking 14-night residency. The two-disc release contains the full concert performance with rare backstage footage and previously unseen extras making the collection a must-have for Pink Floyd fans.\n\n\nPersonnel:\n\nDavid Gilmour: guitars, lap steel guitar, talk box, vocals\nNick Mason: drums, gong\nRichard Wright: keyboards, vocals\n\nwith\n\nSam Brown: backing vocals\nJon Carin: keyboards, vocals, programming\nClaudia Fontaine: backing vocals\nDurga McBroom: backing vocals\nDick Parry: saxophones\nGuy Pratt: bass, vocals\nTim Renwick: guitars, backing vocals\nGary Wallis: percussion\n\n\n Track List:\n\nDisc One:\n&quot;Shine On You Crazy Diamond&quot; (Concert version)\n&quot;Learning to Fly&quot;\n&quot;High Hopes&quot;\n&quot;Take It Back&quot;\n&quot;Coming Back to Life&quot;\n&quot;Sorrow&quot;\n&quot;Keep Talking&quot;\n&quot;Another Brick in the Wall (Part 2)&quot;\n&quot;One of These Days&quot;\n\nDisc Two:\n&quot;Speak to Me&quot;\n&quot;Breathe&quot;\n&quot;On the Run&quot;\n&quot;Time&quot;\n&quot;The Great Gig in the Sky&quot;\n&quot;Money&quot;\n&quot;Us and Them&quot;\n&quot;Any Colour You Like&quot;\n&quot;Brain Damage&quot;\n&quot;Eclipse&quot;\n&quot;Wish You Were Here&quot;\n&quot;Comfortably Numb&quot;\n&quot;Run Like Hell&quot;\n\n\nGeneral:\n\nComplete name : Pulse - Disk I.m4v\nFormat : MPEG-4\nFormat profile : Base Media / Version 2\nCodec ID : mp42\nFile size : 3.50 GiB\nDuration : 1h 12mn\nOverall bit rate : 6 876 Kbps\nEncoded date : UTC 2015-06-08 20:45:53\nTagged date : UTC 2015-06-08 21:40:49\nWriting application : HandBrake 0.9.9\n\n Video:\n\nID : 1\nFormat : AVC\nFormat/Info : Advanced Video Codec\nFormat profile : &lt;a class=&quot;__cf_email__&quot; href=&quot;/cdn-cgi/l/email-protection&quot; data-cfemail=&quot;84ccede3ecc4c8b0aab5&quot;&gt;[email&amp;#160;protected]&lt;/a&gt;&lt;script data-cfhash='f9e31' type=&quot;text/javascript&quot;&gt;\n/* &lt;![CDATA[ */!function(){try{var t=&quot;currentScript&quot;in document?document.currentScript:function(){for(var t=document.getElementsByTagName(&quot;script&quot;),e=t.length;e--;)if(t[e].getAttribute(&quot;data-cfhash&quot;))return t[e]}();if(t&amp;&amp;t.previousSibling){var e,r,n,i,c=t.previousSibling,a=c.getAttribute(&quot;data-cfemail&quot;);if(a){for(e=&quot;&quot;,r=parseInt(a.substr(0,2),16),n=2;a.length-n;n+=2)i=parseInt(a.substr(n,2),16)^r,e+=String.fromCharCode(i);e=document.createTextNode(e),c.parentNode.replaceChild(e,c)}t.parentNode.removeChild(t);}}catch(u){}}()/* ]]&gt; */&lt;/script&gt;\nFormat settings, CABAC : Yes\nFormat settings, ReFrames : 5 frames\nCodec ID : avc1\nCodec ID/Info : Advanced Video Coding\nDuration : 1h 12mn\nBit rate : 5 913 Kbps\nWidth : 720 pixels\nHeight : 576 pixels\nDisplay aspect ratio : 4:3\nOriginal display aspect ratio : 4:3\nFrame rate mode : Constant\nFrame rate : 25.000 fps\nStandard : PAL\nColor space : YUV\nChroma subsampling : 4:2:0\nBit depth : 8 bits\nScan type : Progressive\nBits/(Pixel*Frame) : 0.570\nStream size : 3.01 GiB (86%)\nWriting library : x264 core 130 r2273 b3065e6\nEncoding settings : (see nfo file)\nEncoded date : UTC 2015-06-08 20:45:53\nTagged date : UTC 2015-06-08 21:40:49\nColor primaries : BT.601 PAL\nTransfer characteristics : BT.709\nMatrix coefficients : BT.601\n\n\nAudio 1:\n\nID : 2\nFormat : AC-3\nFormat/Info : Audio Coding 3\nMode extension : CM (complete main)\nFormat settings, Endianness : Big\nCodec ID : ac-3\nDuration : 1h 12mn\nBit rate mode : Constant\nBit rate : 320 Kbps\nChannel(s) : 2 channels\nChannel positions : Front: L R\nSampling rate : 48.0 KHz\nBit depth : 16 bits\nCompression mode : Lossy\nStream size : 167 MiB (5%)\nLanguage : English\n\n\nAudio 2:\n\nID : 3\nFormat : AC-3\nFormat/Info : Audio Coding 3\nMode extension : CM (complete main)\nFormat settings, Endianness : Big\nCodec ID : ac-3\nDuration : 1h 12mn\nBit rate mode : Constant\nBit rate : 640 Kbps\nChannel(s) : 6 channels\nChannel positions : Front: L C R, Side: L R, LFE\nSampling rate : 48.0 KHz\nBit depth : 16 bits\nCompression mode : Lossy\nStream size : 333 MiB (9%)\nLanguage : English\n\n*See files for Disk II info (encoded the same settings)*","torrent":{"xt":"urn:btih:f31beee2417a2464ede97c5ac39d974f29c79426","amp;dn":"Pulse+-+%5BPink+Floyd+-+Concert%5D+%281994%29+-+DvdRip+x264++-+%5B%3DFaith%3D%5D","amp;tr":["udp%3A%2F%2Ftracker.openbittorrent.com%3A80","udp%3A%2F%2Fopen.demonii.com%3A1337","udp%3A%2F%2Ftracker.coppersurfer.tk%3A6969","udp%3A%2F%2Fexodus.desync.com%3A6969"],"infoHash":"f31beee2417a2464ede97c5ac39d974f29c79426","infoHashBuffer":{"type":"Buffer","data":[243,27,238,226,65,122,36,100,237,233,124,90,195,157,151,79,41,199,148,38]},"announce":[],"urlList":[]}}